TITLE ""
FILE "P1Q_t_0501-0509.mp3" MP3
  TRACK 01 AUDIO
    TITLE "P1Q_t_0501-0509_01"
    INDEX 01 00:00:00
  TRACK 02 AUDIO
    TITLE "P1Q_t_0501-0509_02"
    INDEX 01 00:00:08
  TRACK 03 AUDIO
    TITLE "P1Q_t_0501-0509_03"
    INDEX 01 00:03:36
  TRACK 04 AUDIO
    TITLE "P1Q_t_0501-0509_04"
    INDEX 01 00:04:06
  TRACK 05 AUDIO
    TITLE "P1Q_t_0501-0509_05"
    INDEX 01 00:05:58
  TRACK 06 AUDIO
    TITLE "P1Q_t_0501-0509_06"
    INDEX 01 00:06:31
  TRACK 07 AUDIO
    TITLE "P1Q_t_0501-0509_07"
    INDEX 01 00:07:32
  TRACK 08 AUDIO
    TITLE "P1Q_t_0501-0509_08"
    INDEX 01 00:08:04
  TRACK 09 AUDIO
    TITLE "P1Q_t_0501-0509_09"
    INDEX 01 00:09:15
  TRACK 10 AUDIO
    TITLE "P1Q_t_0501-0509_10"
    INDEX 01 00:09:37
  TRACK 11 AUDIO
    TITLE "P1Q_t_0501-0509_11"
    INDEX 01 00:12:21
  TRACK 12 AUDIO
    TITLE "P1Q_t_0501-0509_12"
    INDEX 01 00:12:45
  TRACK 13 AUDIO
    TITLE "P1Q_t_0501-0509_13"
    INDEX 01 00:16:39
  TRACK 14 AUDIO
    TITLE "P1Q_t_0501-0509_14"
    INDEX 01 00:17:09
  TRACK 15 AUDIO
    TITLE "P1Q_t_0501-0509_15"
    INDEX 01 00:18:18
  TRACK 16 AUDIO
    TITLE "P1Q_t_0501-0509_16"
    INDEX 01 00:18:38
  TRACK 17 AUDIO
    TITLE "P1Q_t_0501-0509_17"
    INDEX 01 00:22:22
  TRACK 18 AUDIO
    TITLE "P1Q_t_0501-0509_18"
    INDEX 01 00:22:41
  TRACK 19 AUDIO
    TITLE "P1Q_t_0501-0509_19"
    INDEX 01 00:26:63
  TRACK 20 AUDIO
    TITLE "P1Q_t_0501-0509_20"
    INDEX 01 00:27:35
  TRACK 21 AUDIO
    TITLE "P1Q_t_0501-0509_21"
    INDEX 01 00:28:48
  TRACK 22 AUDIO
    TITLE "P1Q_t_0501-0509_22"
    INDEX 01 00:28:67
  TRACK 23 AUDIO
    TITLE "P1Q_t_0501-0509_23"
    INDEX 01 00:32:48
  TRACK 24 AUDIO
    TITLE "P1Q_t_0501-0509_24"
    INDEX 01 00:32:67
  TRACK 25 AUDIO
    TITLE "P1Q_t_0501-0509_25"
    INDEX 01 00:36:73
  TRACK 26 AUDIO
    TITLE "P1Q_t_0501-0509_26"
    INDEX 01 00:37:45
  TRACK 27 AUDIO
    TITLE "P1Q_t_0501-0509_27"
    INDEX 01 00:39:04
  TRACK 28 AUDIO
    TITLE "P1Q_t_0501-0509_28"
    INDEX 01 00:39:24
  TRACK 29 AUDIO
    TITLE "P1Q_t_0501-0509_29"
    INDEX 01 00:41:01
  TRACK 30 AUDIO
    TITLE "P1Q_t_0501-0509_30"
    INDEX 01 00:41:23
  TRACK 31 AUDIO
    TITLE "P1Q_t_0501-0509_31"
    INDEX 01 00:45:44
  TRACK 32 AUDIO
    TITLE "P1Q_t_0501-0509_32"
    INDEX 01 00:46:14
  TRACK 33 AUDIO
    TITLE "P1Q_t_0501-0509_33"
    INDEX 01 00:47:22
  TRACK 34 AUDIO
    TITLE "P1Q_t_0501-0509_34"
    INDEX 01 00:47:43
  TRACK 35 AUDIO
    TITLE "P1Q_t_0501-0509_35"
    INDEX 01 00:50:51
  TRACK 36 AUDIO
    TITLE "P1Q_t_0501-0509_36"
    INDEX 01 00:50:73
  TRACK 37 AUDIO
    TITLE "P1Q_t_0501-0509_37"
    INDEX 01 00:55:52
  TRACK 38 AUDIO
    TITLE "P1Q_t_0501-0509_38"
    INDEX 01 00:56:25
  TRACK 39 AUDIO
    TITLE "P1Q_t_0501-0509_39"
    INDEX 01 00:57:46
  TRACK 40 AUDIO
    TITLE "P1Q_t_0501-0509_40"
    INDEX 01 00:57:63
  TRACK 41 AUDIO
    TITLE "P1Q_t_0501-0509_41"
    INDEX 01 01:00:46
  TRACK 42 AUDIO
    TITLE "P1Q_t_0501-0509_42"
    INDEX 01 01:00:65
  TRACK 43 AUDIO
    TITLE "P1Q_t_0501-0509_43"
    INDEX 01 01:05:18
  TRACK 44 AUDIO
    TITLE "P1Q_t_0501-0509_44"
    INDEX 01 01:05:65
  TRACK 45 AUDIO
    TITLE "P1Q_t_0501-0509_45"
    INDEX 01 01:07:09
  TRACK 46 AUDIO
    TITLE "P1Q_t_0501-0509_46"
    INDEX 01 01:07:30
  TRACK 47 AUDIO
    TITLE "P1Q_t_0501-0509_47"
    INDEX 01 01:09:66
  TRACK 48 AUDIO
    TITLE "P1Q_t_0501-0509_48"
    INDEX 01 01:10:13
  TRACK 49 AUDIO
    TITLE "P1Q_t_0501-0509_49"
    INDEX 01 01:14:32
  TRACK 50 AUDIO
    TITLE "P1Q_t_0501-0509_50"
    INDEX 01 01:15:02
  TRACK 51 AUDIO
    TITLE "P1Q_t_0501-0509_51"
    INDEX 01 01:16:31
  TRACK 52 AUDIO
    TITLE "P1Q_t_0501-0509_52"
    INDEX 01 01:16:53
  TRACK 53 AUDIO
    TITLE "P1Q_t_0501-0509_53"
    INDEX 01 01:20:49
  TRACK 54 AUDIO
    TITLE "P1Q_t_0501-0509_54"
    INDEX 01 01:20:68
  TRACK 55 AUDIO
    TITLE "P1Q_t_0501-0509_55"
    INDEX 01 01:25:58
  TRACK 56 AUDIO
    TITLE "P1Q_t_0501-0509_56"
    INDEX 01 01:26:26
  TRACK 57 AUDIO
    TITLE "P1Q_t_0501-0509_57"
    INDEX 01 01:27:64
  TRACK 58 AUDIO
    TITLE "P1Q_t_0501-0509_58"
    INDEX 01 01:28:11
  TRACK 59 AUDIO
    TITLE "P1Q_t_0501-0509_59"
    INDEX 01 01:32:16
  TRACK 60 AUDIO
    TITLE "P1Q_t_0501-0509_60"
    INDEX 01 01:32:36
  TRACK 61 AUDIO
    TITLE "P1Q_t_0501-0509_61"
    INDEX 01 01:36:53
